<?xml version="1.0" encoding="us-ascii" standalone="no"?><svg xmlns="http://www.w3.org/2000/svg" xmlns:xlink="http://www.w3.org/1999/xlink" contentStyleType="text/css" height="365px" preserveAspectRatio="none" style="width:781px;height:365px;background:#FFFFFF;" version="1.1" viewBox="0 0 781 365" width="781px" zoomAndPan="magnify"><defs/><g><!--class DocumentosSistema--><g id="elem_DocumentosSistema"><rect codeLine="1" fill="#F1F1F1" height="113.1875" id="DocumentosSistema" rx="2.5" ry="2.5" style="stroke:#181818;stroke-width:0.5;" width="182" x="319.5" y="7"/><ellipse cx="335.85" cy="23" fill="#A9DCDF" rx="11" ry="11" style="stroke:#181818;stroke-width:1.0;"/><path d="M337.9281,24.8125 L338.3188,25.7969 L337.9281,25.7969 C337.475,25.7969 337.3656,25.8125 337.2094,25.9219 C336.9594,26.0781 336.8031,26.3594 336.8031,26.6563 C336.8031,26.9219 336.9438,27.1719 337.1625,27.3281 C337.3031,27.4531 337.5063,27.5 337.9281,27.5 L340.2875,27.5 C340.6469,27.5 340.8656,27.4688 341.0063,27.375 C341.2563,27.2344 341.4125,26.9375 341.4125,26.6563 C341.4125,26.375 341.2719,26.125 341.0531,25.9688 C340.8813,25.8281 340.725,25.7969 340.2563,25.7969 L336.8656,17.5938 L333.1938,17.5938 C332.7406,17.5938 332.6156,17.6094 332.4594,17.7031 C332.2094,17.875 332.0531,18.1563 332.0531,18.4375 C332.0531,18.7188 332.1938,18.9688 332.4125,19.1406 C332.5844,19.25 332.7563,19.2813 333.1938,19.2813 L334.2719,19.2813 L331.6313,25.7969 C331.2094,25.7969 331.0531,25.8125 330.8969,25.9219 C330.6469,26.0781 330.4906,26.3594 330.4906,26.6563 C330.4906,27.2188 330.8656,27.5 331.6156,27.5 L333.8813,27.5 C334.2406,27.5 334.4594,27.4688 334.5844,27.375 C334.85,27.2344 334.9906,26.9375 334.9906,26.6563 C334.9906,26.375 334.8656,26.125 334.6469,25.9531 C334.475,25.8281 334.3344,25.7969 333.8813,25.7969 L333.4906,25.7969 L333.8813,24.8125 L337.9281,24.8125 Z M337.225,23.1094 L334.5531,23.1094 L335.8969,19.8438 L337.225,23.1094 Z " fill="#000000"/><text fill="#000000" font-family="sans-serif" font-size="14" font-style="italic" lengthAdjust="spacing" textLength="147" x="350.15" y="27.8467">DocumentosSistema</text><line style="stroke:#181818;stroke-width:0.5;" x1="320.5" x2="500.5" y1="39" y2="39"/><line style="stroke:#181818;stroke-width:0.5;" x1="320.5" x2="500.5" y1="47" y2="47"/><ellipse cx="330.5" cy="60.6484" fill="#84BE84" rx="3" ry="3" style="stroke:#038048;stroke-width:1.0;"/><text fill="#000000" font-family="sans-serif" font-size="14" lengthAdjust="spacing" textLength="144" x="339.5" y="63.9951">getNombre(): string</text><ellipse cx="330.5" cy="76.9453" fill="#84BE84" rx="3" ry="3" style="stroke:#038048;stroke-width:1.0;"/><text fill="#000000" font-family="sans-serif" font-size="14" lengthAdjust="spacing" textLength="118" x="339.5" y="80.292">getTipo(): string</text><ellipse cx="330.5" cy="93.2422" fill="#84BE84" rx="3" ry="3" style="stroke:#038048;stroke-width:1.0;"/><text fill="#000000" font-family="sans-serif" font-size="14" lengthAdjust="spacing" textLength="125" x="339.5" y="96.5889">getTamanio(): int</text><ellipse cx="330.5" cy="109.5391" fill="#84BE84" rx="3" ry="3" style="stroke:#038048;stroke-width:1.0;"/><text fill="#000000" font-family="sans-serif" font-size="14" lengthAdjust="spacing" textLength="156" x="339.5" y="112.8857">acceder(usuario): void</text></g><!--class Carpeta--><g id="elem_Carpeta"><rect codeLine="8" fill="#F1F1F1" height="162.0781" id="Carpeta" rx="2.5" ry="2.5" style="stroke:#181818;stroke-width:0.5;" width="277" x="7" y="188"/><ellipse cx="112.25" cy="204" fill="#ADD1B2" rx="11" ry="11" style="stroke:#181818;stroke-width:1.0;"/><path d="M114.5938,199.6719 C113.6563,199.2344 113.0625,199.0938 112.1875,199.0938 C109.5625,199.0938 107.5625,201.1719 107.5625,203.8906 L107.5625,205.0156 C107.5625,207.5938 109.6719,209.4844 112.5625,209.4844 C113.7813,209.4844 114.9375,209.1875 115.6875,208.6406 C116.2656,208.2344 116.5938,207.7813 116.5938,207.3906 C116.5938,206.9375 116.2031,206.5469 115.7344,206.5469 C115.5156,206.5469 115.3125,206.625 115.125,206.8125 C114.6719,207.2969 114.6719,207.2969 114.4844,207.3906 C114.0625,207.6563 113.375,207.7813 112.6094,207.7813 C110.5625,207.7813 109.2656,206.6875 109.2656,204.9844 L109.2656,203.8906 C109.2656,202.1094 110.5156,200.7969 112.25,200.7969 C112.8281,200.7969 113.4375,200.9531 113.9063,201.2031 C114.3906,201.4844 114.5625,201.7031 114.6563,202.1094 C114.7188,202.5156 114.75,202.6406 114.8906,202.7656 C115.0313,202.9063 115.2656,203.0156 115.4844,203.0156 C115.75,203.0156 116.0156,202.875 116.1875,202.6563 C116.2969,202.5 116.3281,202.3125 116.3281,201.8906 L116.3281,200.4688 C116.3281,200.0313 116.3125,199.9063 116.2188,199.75 C116.0625,199.4844 115.7813,199.3438 115.4844,199.3438 C115.1875,199.3438 114.9844,199.4375 114.7656,199.75 L114.5938,199.6719 Z " fill="#000000"/><text fill="#000000" font-family="sans-serif" font-size="14" lengthAdjust="spacing" textLength="58" x="132.75" y="208.8467">Carpeta</text><line style="stroke:#181818;stroke-width:0.5;" x1="8" x2="283" y1="220" y2="220"/><rect fill="none" height="6" style="stroke:#C82930;stroke-width:1.0;" width="6" x="15" y="230.6484"/><text fill="#000000" font-family="sans-serif" font-size="14" lengthAdjust="spacing" textLength="108" x="27" y="236.9951">nombre: string</text><rect fill="none" height="6" style="stroke:#C82930;stroke-width:1.0;" width="6" x="15" y="246.9453"/><text fill="#000000" font-family="sans-serif" font-size="14" lengthAdjust="spacing" textLength="108" x="27" y="253.292">elementos: list</text><line style="stroke:#181818;stroke-width:0.5;" x1="8" x2="283" y1="260.5938" y2="260.5938"/><ellipse cx="18" cy="274.2422" fill="#84BE84" rx="3" ry="3" style="stroke:#038048;stroke-width:1.0;"/><text fill="#000000" font-family="sans-serif" font-size="14" lengthAdjust="spacing" textLength="144" x="27" y="277.5889">getNombre(): string</text><ellipse cx="18" cy="290.5391" fill="#84BE84" rx="3" ry="3" style="stroke:#038048;stroke-width:1.0;"/><text fill="#000000" font-family="sans-serif" font-size="14" lengthAdjust="spacing" textLength="118" x="27" y="293.8857">getTipo(): string</text><ellipse cx="18" cy="306.8359" fill="#84BE84" rx="3" ry="3" style="stroke:#038048;stroke-width:1.0;"/><text fill="#000000" font-family="sans-serif" font-size="14" lengthAdjust="spacing" textLength="125" x="27" y="310.1826">getTamanio(): int</text><ellipse cx="18" cy="323.1328" fill="#84BE84" rx="3" ry="3" style="stroke:#038048;stroke-width:1.0;"/><text fill="#000000" font-family="sans-serif" font-size="14" lengthAdjust="spacing" textLength="251" x="27" y="326.4795">agregar_elemento(elemento): void</text><ellipse cx="18" cy="339.4297" fill="#84BE84" rx="3" ry="3" style="stroke:#038048;stroke-width:1.0;"/><text fill="#000000" font-family="sans-serif" font-size="14" lengthAdjust="spacing" textLength="156" x="27" y="342.7764">acceder(usuario): void</text></g><!--class Documento--><g id="elem_Documento"><rect codeLine="18" fill="#F1F1F1" height="178.375" id="Documento" rx="2.5" ry="2.5" style="stroke:#181818;stroke-width:0.5;" width="182" x="319.5" y="180"/><ellipse cx="364.25" cy="196" fill="#ADD1B2" rx="11" ry="11" style="stroke:#181818;stroke-width:1.0;"/><path d="M366.5938,191.6719 C365.6563,191.2344 365.0625,191.0938 364.1875,191.0938 C361.5625,191.0938 359.5625,193.1719 359.5625,195.8906 L359.5625,197.0156 C359.5625,199.5938 361.6719,201.4844 364.5625,201.4844 C365.7813,201.4844 366.9375,201.1875 367.6875,200.6406 C368.2656,200.2344 368.5938,199.7813 368.5938,199.3906 C368.5938,198.9375 368.2031,198.5469 367.7344,198.5469 C367.5156,198.5469 367.3125,198.625 367.125,198.8125 C366.6719,199.2969 366.6719,199.2969 366.4844,199.3906 C366.0625,199.6563 365.375,199.7813 364.6094,199.7813 C362.5625,199.7813 361.2656,198.6875 361.2656,196.9844 L361.2656,195.8906 C361.2656,194.1094 362.5156,192.7969 364.25,192.7969 C364.8281,192.7969 365.4375,192.9531 365.9063,193.2031 C366.3906,193.4844 366.5625,193.7031 366.6563,194.1094 C366.7188,194.5156 366.75,194.6406 366.8906,194.7656 C367.0313,194.9063 367.2656,195.0156 367.4844,195.0156 C367.75,195.0156 368.0156,194.875 368.1875,194.6563 C368.2969,194.5 368.3281,194.3125 368.3281,193.8906 L368.3281,192.4688 C368.3281,192.0313 368.3125,191.9063 368.2188,191.75 C368.0625,191.4844 367.7813,191.3438 367.4844,191.3438 C367.1875,191.3438 366.9844,191.4375 366.7656,191.75 L366.5938,191.6719 Z " fill="#000000"/><text fill="#000000" font-family="sans-serif" font-size="14" lengthAdjust="spacing" textLength="84" x="384.75" y="200.8467">Documento</text><line style="stroke:#181818;stroke-width:0.5;" x1="320.5" x2="500.5" y1="212" y2="212"/><rect fill="none" height="6" style="stroke:#C82930;stroke-width:1.0;" width="6" x="327.5" y="222.6484"/><text fill="#000000" font-family="sans-serif" font-size="14" lengthAdjust="spacing" textLength="108" x="339.5" y="228.9951">nombre: string</text><rect fill="none" height="6" style="stroke:#C82930;stroke-width:1.0;" width="6" x="327.5" y="238.9453"/><text fill="#000000" font-family="sans-serif" font-size="14" lengthAdjust="spacing" textLength="81" x="339.5" y="245.292">tipo: string</text><rect fill="none" height="6" style="stroke:#C82930;stroke-width:1.0;" width="6" x="327.5" y="255.2422"/><text fill="#000000" font-family="sans-serif" font-size="14" lengthAdjust="spacing" textLength="88" x="339.5" y="261.5889">tamanio: int</text><rect fill="none" height="6" style="stroke:#C82930;stroke-width:1.0;" width="6" x="327.5" y="271.5391"/><text fill="#000000" font-family="sans-serif" font-size="14" lengthAdjust="spacing" textLength="124" x="339.5" y="277.8857">contenido: string</text><line style="stroke:#181818;stroke-width:0.5;" x1="320.5" x2="500.5" y1="285.1875" y2="285.1875"/><ellipse cx="330.5" cy="298.8359" fill="#84BE84" rx="3" ry="3" style="stroke:#038048;stroke-width:1.0;"/><text fill="#000000" font-family="sans-serif" font-size="14" lengthAdjust="spacing" textLength="144" x="339.5" y="302.1826">getNombre(): string</text><ellipse cx="330.5" cy="315.1328" fill="#84BE84" rx="3" ry="3" style="stroke:#038048;stroke-width:1.0;"/><text fill="#000000" font-family="sans-serif" font-size="14" lengthAdjust="spacing" textLength="118" x="339.5" y="318.4795">getTipo(): string</text><ellipse cx="330.5" cy="331.4297" fill="#84BE84" rx="3" ry="3" style="stroke:#038048;stroke-width:1.0;"/><text fill="#000000" font-family="sans-serif" font-size="14" lengthAdjust="spacing" textLength="125" x="339.5" y="334.7764">getTamanio(): int</text><ellipse cx="330.5" cy="347.7266" fill="#84BE84" rx="3" ry="3" style="stroke:#038048;stroke-width:1.0;"/><text fill="#000000" font-family="sans-serif" font-size="14" lengthAdjust="spacing" textLength="156" x="339.5" y="351.0732">acceder(usuario): void</text></g><!--class Enlace--><g id="elem_Enlace"><rect codeLine="29" fill="#F1F1F1" height="145.7813" id="Enlace" rx="2.5" ry="2.5" style="stroke:#181818;stroke-width:0.5;" width="238" x="536.5" y="196"/><ellipse cx="627.75" cy="212" fill="#ADD1B2" rx="11" ry="11" style="stroke:#181818;stroke-width:1.0;"/><path d="M630.0938,207.6719 C629.1563,207.2344 628.5625,207.0938 627.6875,207.0938 C625.0625,207.0938 623.0625,209.1719 623.0625,211.8906 L623.0625,213.0156 C623.0625,215.5938 625.1719,217.4844 628.0625,217.4844 C629.2813,217.4844 630.4375,217.1875 631.1875,216.6406 C631.7656,216.2344 632.0938,215.7813 632.0938,215.3906 C632.0938,214.9375 631.7031,214.5469 631.2344,214.5469 C631.0156,214.5469 630.8125,214.625 630.625,214.8125 C630.1719,215.2969 630.1719,215.2969 629.9844,215.3906 C629.5625,215.6563 628.875,215.7813 628.1094,215.7813 C626.0625,215.7813 624.7656,214.6875 624.7656,212.9844 L624.7656,211.8906 C624.7656,210.1094 626.0156,208.7969 627.75,208.7969 C628.3281,208.7969 628.9375,208.9531 629.4063,209.2031 C629.8906,209.4844 630.0625,209.7031 630.1563,210.1094 C630.2188,210.5156 630.25,210.6406 630.3906,210.7656 C630.5313,210.9063 630.7656,211.0156 630.9844,211.0156 C631.25,211.0156 631.5156,210.875 631.6875,210.6563 C631.7969,210.5 631.8281,210.3125 631.8281,209.8906 L631.8281,208.4688 C631.8281,208.0313 631.8125,207.9063 631.7188,207.75 C631.5625,207.4844 631.2813,207.3438 630.9844,207.3438 C630.6875,207.3438 630.4844,207.4375 630.2656,207.75 L630.0938,207.6719 Z " fill="#000000"/><text fill="#000000" font-family="sans-serif" font-size="14" lengthAdjust="spacing" textLength="47" x="648.25" y="216.8467">Enlace</text><line style="stroke:#181818;stroke-width:0.5;" x1="537.5" x2="773.5" y1="228" y2="228"/><rect fill="none" height="6" style="stroke:#C82930;stroke-width:1.0;" width="6" x="544.5" y="238.6484"/><text fill="#000000" font-family="sans-serif" font-size="14" lengthAdjust="spacing" textLength="108" x="556.5" y="244.9951">nombre: string</text><rect fill="none" height="6" style="stroke:#C82930;stroke-width:1.0;" width="6" x="544.5" y="254.9453"/><text fill="#000000" font-family="sans-serif" font-size="14" lengthAdjust="spacing" textLength="212" x="556.5" y="261.292">destino: DocumentosSistema</text><line style="stroke:#181818;stroke-width:0.5;" x1="537.5" x2="773.5" y1="268.5938" y2="268.5938"/><ellipse cx="547.5" cy="282.2422" fill="#84BE84" rx="3" ry="3" style="stroke:#038048;stroke-width:1.0;"/><text fill="#000000" font-family="sans-serif" font-size="14" lengthAdjust="spacing" textLength="144" x="556.5" y="285.5889">getNombre(): string</text><ellipse cx="547.5" cy="298.5391" fill="#84BE84" rx="3" ry="3" style="stroke:#038048;stroke-width:1.0;"/><text fill="#000000" font-family="sans-serif" font-size="14" lengthAdjust="spacing" textLength="118" x="556.5" y="301.8857">getTipo(): string</text><ellipse cx="547.5" cy="314.8359" fill="#84BE84" rx="3" ry="3" style="stroke:#038048;stroke-width:1.0;"/><text fill="#000000" font-family="sans-serif" font-size="14" lengthAdjust="spacing" textLength="125" x="556.5" y="318.1826">getTamanio(): int</text><ellipse cx="547.5" cy="331.1328" fill="#84BE84" rx="3" ry="3" style="stroke:#038048;stroke-width:1.0;"/><text fill="#000000" font-family="sans-serif" font-size="14" lengthAdjust="spacing" textLength="156" x="556.5" y="334.4795">acceder(usuario): void</text></g><!--reverse link DocumentosSistema to Carpeta--><g id="link_DocumentosSistema_Carpeta"><path codeLine="38" d="M323.8118,131.0701 C296.6868,151.9001 279.576,165.039 250.116,187.663 " fill="none" id="DocumentosSistema-backto-Carpeta" style="stroke:#181818;stroke-width:1.0;"/><polygon fill="none" points="338.088,120.107,320.1574,126.3113,327.4661,135.8288,338.088,120.107" style="stroke:#181818;stroke-width:1.0;"/></g><!--reverse link DocumentosSistema to Documento--><g id="link_DocumentosSistema_Documento"><path codeLine="39" d="M410.5,138.107 C410.5,156.583 410.5,159.634 410.5,179.944 " fill="none" id="DocumentosSistema-backto-Documento" style="stroke:#181818;stroke-width:1.0;"/><polygon fill="none" points="410.5,120.107,404.5,138.107,416.5,138.107,410.5,120.107" style="stroke:#181818;stroke-width:1.0;"/></g><!--reverse link DocumentosSistema to Enlace--><g id="link_DocumentosSistema_Enlace"><path codeLine="40" d="M491.2935,131.608 C519.3465,154.909 538.484,170.805 568.389,195.645 " fill="none" id="DocumentosSistema-backto-Enlace" style="stroke:#181818;stroke-width:1.0;"/><polygon fill="none" points="477.447,120.107,487.4599,136.2235,495.1272,126.9925,477.447,120.107" style="stroke:#181818;stroke-width:1.0;"/></g><!--SRC=[lP8n3i8m34Ntdi9Z4Se541kmii2EtDIgBBLEbRWimDs9MWA20c90pHJzdyJlEyOYg4UhO6iC0TRETWs9kh3ZeDGWd3A8QmuLwTOrXQTyje1uXwLwE7jktLiT6nJkBHQzwMWjbUJpBdJesKNlwBZCBbasCApGjwIfiW7fopuzRe1g6ZWNK4VI_qDMdYhqXrGdJvk4-rkMUp-_fz68zYeDL0yc0zQ9ad3fnXac-fgDr6ZfUvQIWh94nj4iJOWxdkFbsPWqMf_ik_pfm93_2W00]--></g></svg>