<?xml version="1.0" encoding="us-ascii" standalone="no"?><svg xmlns="http://www.w3.org/2000/svg" xmlns:xlink="http://www.w3.org/1999/xlink" contentStyleType="text/css" height="283px" preserveAspectRatio="none" style="width:582px;height:283px;background:#FFFFFF;" version="1.1" viewBox="0 0 582 283" width="582px" zoomAndPan="magnify"><defs/><g><!--class Subject--><g id="elem_Subject"><rect codeLine="1" fill="#F1F1F1" height="64.2969" id="Subject" rx="2.5" ry="2.5" style="stroke:#181818;stroke-width:0.5;" width="129" x="222.5" y="7"/><ellipse cx="257.3" cy="23" fill="#A9DCDF" rx="11" ry="11" style="stroke:#181818;stroke-width:1.0;"/><path d="M259.3781,24.8125 L259.7688,25.7969 L259.3781,25.7969 C258.925,25.7969 258.8156,25.8125 258.6594,25.9219 C258.4094,26.0781 258.2531,26.3594 258.2531,26.6563 C258.2531,26.9219 258.3938,27.1719 258.6125,27.3281 C258.7531,27.4531 258.9563,27.5 259.3781,27.5 L261.7375,27.5 C262.0969,27.5 262.3156,27.4688 262.4563,27.375 C262.7063,27.2344 262.8625,26.9375 262.8625,26.6563 C262.8625,26.375 262.7219,26.125 262.5031,25.9688 C262.3313,25.8281 262.175,25.7969 261.7063,25.7969 L258.3156,17.5938 L254.6438,17.5938 C254.1906,17.5938 254.0656,17.6094 253.9094,17.7031 C253.6594,17.875 253.5031,18.1563 253.5031,18.4375 C253.5031,18.7188 253.6438,18.9688 253.8625,19.1406 C254.0344,19.25 254.2063,19.2813 254.6438,19.2813 L255.7219,19.2813 L253.0813,25.7969 C252.6594,25.7969 252.5031,25.8125 252.3469,25.9219 C252.0969,26.0781 251.9406,26.3594 251.9406,26.6563 C251.9406,27.2188 252.3156,27.5 253.0656,27.5 L255.3313,27.5 C255.6906,27.5 255.9094,27.4688 256.0344,27.375 C256.3,27.2344 256.4406,26.9375 256.4406,26.6563 C256.4406,26.375 256.3156,26.125 256.0969,25.9531 C255.925,25.8281 255.7844,25.7969 255.3313,25.7969 L254.9406,25.7969 L255.3313,24.8125 L259.3781,24.8125 Z M258.675,23.1094 L256.0031,23.1094 L257.3469,19.8438 L258.675,23.1094 Z " fill="#000000"/><text fill="#000000" font-family="sans-serif" font-size="14" font-style="italic" lengthAdjust="spacing" textLength="53" x="275.7" y="27.8467">Subject</text><line style="stroke:#181818;stroke-width:0.5;" x1="223.5" x2="350.5" y1="39" y2="39"/><line style="stroke:#181818;stroke-width:0.5;" x1="223.5" x2="350.5" y1="47" y2="47"/><ellipse cx="233.5" cy="60.6484" fill="#84BE84" rx="3" ry="3" style="stroke:#038048;stroke-width:1.0;"/><text fill="#000000" font-family="sans-serif" font-size="14" font-style="italic" lengthAdjust="spacing" textLength="103" x="242.5" y="63.9951">request(): void</text></g><!--class Proxy--><g id="elem_Proxy"><rect codeLine="5" fill="#F1F1F1" height="129.4844" id="Proxy" rx="2.5" ry="2.5" style="stroke:#181818;stroke-width:0.5;" width="258" x="7" y="139.5"/><ellipse cx="111.75" cy="155.5" fill="#ADD1B2" rx="11" ry="11" style="stroke:#181818;stroke-width:1.0;"/><path d="M114.0938,151.1719 C113.1563,150.7344 112.5625,150.5938 111.6875,150.5938 C109.0625,150.5938 107.0625,152.6719 107.0625,155.3906 L107.0625,156.5156 C107.0625,159.0938 109.1719,160.9844 112.0625,160.9844 C113.2813,160.9844 114.4375,160.6875 115.1875,160.1406 C115.7656,159.7344 116.0938,159.2813 116.0938,158.8906 C116.0938,158.4375 115.7031,158.0469 115.2344,158.0469 C115.0156,158.0469 114.8125,158.125 114.625,158.3125 C114.1719,158.7969 114.1719,158.7969 113.9844,158.8906 C113.5625,159.1563 112.875,159.2813 112.1094,159.2813 C110.0625,159.2813 108.7656,158.1875 108.7656,156.4844 L108.7656,155.3906 C108.7656,153.6094 110.0156,152.2969 111.75,152.2969 C112.3281,152.2969 112.9375,152.4531 113.4063,152.7031 C113.8906,152.9844 114.0625,153.2031 114.1563,153.6094 C114.2188,154.0156 114.25,154.1406 114.3906,154.2656 C114.5313,154.4063 114.7656,154.5156 114.9844,154.5156 C115.25,154.5156 115.5156,154.375 115.6875,154.1563 C115.7969,154 115.8281,153.8125 115.8281,153.3906 L115.8281,151.9688 C115.8281,151.5313 115.8125,151.4063 115.7188,151.25 C115.5625,150.9844 115.2813,150.8438 114.9844,150.8438 C114.6875,150.8438 114.4844,150.9375 114.2656,151.25 L114.0938,151.1719 Z " fill="#000000"/><text fill="#000000" font-family="sans-serif" font-size="14" lengthAdjust="spacing" textLength="40" x="132.25" y="160.3467">Proxy</text><line style="stroke:#181818;stroke-width:0.5;" x1="8" x2="264" y1="171.5" y2="171.5"/><rect fill="none" height="6" style="stroke:#C82930;stroke-width:1.0;" width="6" x="15" y="182.1484"/><text fill="#000000" font-family="sans-serif" font-size="14" lengthAdjust="spacing" textLength="189" x="27" y="188.4951">_real_subject: RealSubject</text><line style="stroke:#181818;stroke-width:0.5;" x1="8" x2="264" y1="195.7969" y2="195.7969"/><ellipse cx="18" cy="209.4453" fill="#84BE84" rx="3" ry="3" style="stroke:#038048;stroke-width:1.0;"/><text fill="#000000" font-family="sans-serif" font-size="14" lengthAdjust="spacing" textLength="232" x="27" y="212.792">Proxy(real_subject: RealSubject)</text><ellipse cx="18" cy="225.7422" fill="#84BE84" rx="3" ry="3" style="stroke:#038048;stroke-width:1.0;"/><text fill="#000000" font-family="sans-serif" font-size="14" lengthAdjust="spacing" textLength="104" x="27" y="229.0889">request(): void</text><ellipse cx="18" cy="242.0391" fill="#84BE84" rx="3" ry="3" style="stroke:#038048;stroke-width:1.0;"/><text fill="#000000" font-family="sans-serif" font-size="14" lengthAdjust="spacing" textLength="197" x="27" y="245.3857">check_access(acceso): bool</text><ellipse cx="18" cy="258.3359" fill="#84BE84" rx="3" ry="3" style="stroke:#038048;stroke-width:1.0;"/><text fill="#000000" font-family="sans-serif" font-size="14" lengthAdjust="spacing" textLength="125" x="27" y="261.6826">log_access(): void</text></g><!--class RealSubject--><g id="elem_RealSubject"><rect codeLine="13" fill="#F1F1F1" height="145.7813" id="RealSubject" rx="2.5" ry="2.5" style="stroke:#181818;stroke-width:0.5;" width="275" x="300.5" y="131"/><ellipse cx="390.75" cy="147" fill="#ADD1B2" rx="11" ry="11" style="stroke:#181818;stroke-width:1.0;"/><path d="M393.0938,142.6719 C392.1563,142.2344 391.5625,142.0938 390.6875,142.0938 C388.0625,142.0938 386.0625,144.1719 386.0625,146.8906 L386.0625,148.0156 C386.0625,150.5938 388.1719,152.4844 391.0625,152.4844 C392.2813,152.4844 393.4375,152.1875 394.1875,151.6406 C394.7656,151.2344 395.0938,150.7813 395.0938,150.3906 C395.0938,149.9375 394.7031,149.5469 394.2344,149.5469 C394.0156,149.5469 393.8125,149.625 393.625,149.8125 C393.1719,150.2969 393.1719,150.2969 392.9844,150.3906 C392.5625,150.6563 391.875,150.7813 391.1094,150.7813 C389.0625,150.7813 387.7656,149.6875 387.7656,147.9844 L387.7656,146.8906 C387.7656,145.1094 389.0156,143.7969 390.75,143.7969 C391.3281,143.7969 391.9375,143.9531 392.4063,144.2031 C392.8906,144.4844 393.0625,144.7031 393.1563,145.1094 C393.2188,145.5156 393.25,145.6406 393.3906,145.7656 C393.5313,145.9063 393.7656,146.0156 393.9844,146.0156 C394.25,146.0156 394.5156,145.875 394.6875,145.6563 C394.7969,145.5 394.8281,145.3125 394.8281,144.8906 L394.8281,143.4688 C394.8281,143.0313 394.8125,142.9063 394.7188,142.75 C394.5625,142.4844 394.2813,142.3438 393.9844,142.3438 C393.6875,142.3438 393.4844,142.4375 393.2656,142.75 L393.0938,142.6719 Z " fill="#000000"/><text fill="#000000" font-family="sans-serif" font-size="14" lengthAdjust="spacing" textLength="86" x="411.25" y="151.8467">RealSubject</text><line style="stroke:#181818;stroke-width:0.5;" x1="301.5" x2="574.5" y1="163" y2="163"/><rect fill="none" height="6" style="stroke:#C82930;stroke-width:1.0;" width="6" x="308.5" y="173.6484"/><text fill="#000000" font-family="sans-serif" font-size="14" lengthAdjust="spacing" textLength="59" x="320.5" y="179.9951">user: str</text><rect fill="none" height="6" style="stroke:#C82930;stroke-width:1.0;" width="6" x="308.5" y="189.9453"/><text fill="#000000" font-family="sans-serif" font-size="14" lengthAdjust="spacing" textLength="96" x="320.5" y="196.292">password: str</text><rect fill="none" height="6" style="stroke:#C82930;stroke-width:1.0;" width="6" x="308.5" y="206.2422"/><text fill="#000000" font-family="sans-serif" font-size="14" lengthAdjust="spacing" textLength="81" x="320.5" y="212.5889">acces: bool</text><line style="stroke:#181818;stroke-width:0.5;" x1="301.5" x2="574.5" y1="219.8906" y2="219.8906"/><ellipse cx="311.5" cy="233.5391" fill="#84BE84" rx="3" ry="3" style="stroke:#038048;stroke-width:1.0;"/><text fill="#000000" font-family="sans-serif" font-size="14" lengthAdjust="spacing" textLength="249" x="320.5" y="236.8857">RealSubject(user, password, acces)</text><ellipse cx="311.5" cy="249.8359" fill="#84BE84" rx="3" ry="3" style="stroke:#038048;stroke-width:1.0;"/><text fill="#000000" font-family="sans-serif" font-size="14" lengthAdjust="spacing" textLength="104" x="320.5" y="253.1826">request(): void</text><ellipse cx="311.5" cy="266.1328" fill="#84BE84" rx="3" ry="3" style="stroke:#038048;stroke-width:1.0;"/><text fill="#000000" font-family="sans-serif" font-size="14" lengthAdjust="spacing" textLength="95" x="320.5" y="269.4795">getUser(): str</text></g><!--reverse link Subject to Proxy--><g id="link_Subject_Proxy"><path codeLine="22" d="M246.0103,84.2476 C228.1263,103.5526 216.706,115.88 194.974,139.339 " fill="none" id="Subject-backto-Proxy" style="stroke:#181818;stroke-width:1.0;"/><polygon fill="none" points="258.243,71.043,241.6088,80.1701,250.4119,88.3252,258.243,71.043" style="stroke:#181818;stroke-width:1.0;"/></g><!--reverse link Subject to RealSubject--><g id="link_Subject_RealSubject"><path codeLine="23" d="M327.9897,84.2476 C343.7347,101.2436 351.718,109.861 371.158,130.846 " fill="none" id="Subject-backto-RealSubject" style="stroke:#181818;stroke-width:1.0;"/><polygon fill="none" points="315.757,71.043,323.5881,88.3252,332.3912,80.17,315.757,71.043" style="stroke:#181818;stroke-width:1.0;"/></g><!--SRC=[VL1B3e8m4Dtt5BCi0Iv0F8JHk2QbJF3JfDe1Fq7kxj3If6gqcsRcVLlLKE-Kxa4RHGJReJaYJwC0FgDQq0boXvS1gPTP1LTxQCKaH92idRq_5a5PErIcfk1ImOQdnTBZkIVBdwGii3wp_5BlKPzgfJKIINzPnXjhJS2DxIBwrJ69Y4q7GbS1Fo-CPwRTh6kJbJTB4n8NESiBYAe2FFbV_Gxx7MlcvPp0rMAXrRCimo- -hvAu5m00]--></g></svg>