<?xml version="1.0" encoding="us-ascii" standalone="no"?><svg xmlns="http://www.w3.org/2000/svg" xmlns:xlink="http://www.w3.org/1999/xlink" contentStyleType="text/css" height="365px" preserveAspectRatio="none" style="width:1151px;height:365px;background:#FFFFFF;" version="1.1" viewBox="0 0 1151 365" width="1151px" zoomAndPan="magnify"><defs/><g><!--class Component--><g id="elem_Component"><rect codeLine="1" fill="#F1F1F1" height="145.7813" id="Component" rx="2.5" ry="2.5" style="stroke:#181818;stroke-width:0.5;" width="303" x="343" y="7"/><ellipse cx="448.75" cy="23" fill="#A9DCDF" rx="11" ry="11" style="stroke:#181818;stroke-width:1.0;"/><path d="M450.8281,24.8125 L451.2188,25.7969 L450.8281,25.7969 C450.375,25.7969 450.2656,25.8125 450.1094,25.9219 C449.8594,26.0781 449.7031,26.3594 449.7031,26.6563 C449.7031,26.9219 449.8438,27.1719 450.0625,27.3281 C450.2031,27.4531 450.4063,27.5 450.8281,27.5 L453.1875,27.5 C453.5469,27.5 453.7656,27.4688 453.9063,27.375 C454.1563,27.2344 454.3125,26.9375 454.3125,26.6563 C454.3125,26.375 454.1719,26.125 453.9531,25.9688 C453.7813,25.8281 453.625,25.7969 453.1563,25.7969 L449.7656,17.5938 L446.0938,17.5938 C445.6406,17.5938 445.5156,17.6094 445.3594,17.7031 C445.1094,17.875 444.9531,18.1563 444.9531,18.4375 C444.9531,18.7188 445.0938,18.9688 445.3125,19.1406 C445.4844,19.25 445.6563,19.2813 446.0938,19.2813 L447.1719,19.2813 L444.5313,25.7969 C444.1094,25.7969 443.9531,25.8125 443.7969,25.9219 C443.5469,26.0781 443.3906,26.3594 443.3906,26.6563 C443.3906,27.2188 443.7656,27.5 444.5156,27.5 L446.7813,27.5 C447.1406,27.5 447.3594,27.4688 447.4844,27.375 C447.75,27.2344 447.8906,26.9375 447.8906,26.6563 C447.8906,26.375 447.7656,26.125 447.5469,25.9531 C447.375,25.8281 447.2344,25.7969 446.7813,25.7969 L446.3906,25.7969 L446.7813,24.8125 L450.8281,24.8125 Z M450.125,23.1094 L447.4531,23.1094 L448.7969,19.8438 L450.125,23.1094 Z " fill="#000000"/><text fill="#000000" font-family="sans-serif" font-size="14" font-style="italic" lengthAdjust="spacing" textLength="83" x="469.25" y="27.8467">Component</text><line style="stroke:#181818;stroke-width:0.5;" x1="344" x2="645" y1="39" y2="39"/><rect fill="none" height="6" style="stroke:#C82930;stroke-width:1.0;" width="6" x="351" y="49.6484"/><text fill="#000000" font-family="sans-serif" font-size="14" lengthAdjust="spacing" textLength="151" x="363" y="55.9951">_parent: Component</text><ellipse cx="354" cy="68.9453" fill="none" rx="3" ry="3" style="stroke:#038048;stroke-width:1.0;"/><text fill="#000000" font-family="sans-serif" font-size="14" lengthAdjust="spacing" textLength="144" x="363" y="72.292">parent: Component</text><line style="stroke:#181818;stroke-width:0.5;" x1="344" x2="645" y1="79.5938" y2="79.5938"/><ellipse cx="354" cy="93.2422" fill="#84BE84" rx="3" ry="3" style="stroke:#038048;stroke-width:1.0;"/><text fill="#000000" font-family="sans-serif" font-size="14" font-style="italic" lengthAdjust="spacing" textLength="106" x="363" y="96.5889">operation(): str</text><ellipse cx="354" cy="109.5391" fill="#84BE84" rx="3" ry="3" style="stroke:#038048;stroke-width:1.0;"/><text fill="#000000" font-family="sans-serif" font-size="14" font-style="italic" lengthAdjust="spacing" textLength="249" x="363" y="112.8857">add(component: Component): void</text><ellipse cx="354" cy="125.8359" fill="#84BE84" rx="3" ry="3" style="stroke:#038048;stroke-width:1.0;"/><text fill="#000000" font-family="sans-serif" font-size="14" font-style="italic" lengthAdjust="spacing" textLength="277" x="363" y="129.1826">remove(component: Component): void</text><ellipse cx="354" cy="142.1328" fill="#84BE84" rx="3" ry="3" style="stroke:#038048;stroke-width:1.0;"/><text fill="#000000" font-family="sans-serif" font-size="14" lengthAdjust="spacing" textLength="146" x="363" y="145.4795">is_composite(): bool</text></g><!--class Pizza--><g id="elem_Pizza"><rect codeLine="10" fill="#F1F1F1" height="96.8906" id="Pizza" rx="2.5" ry="2.5" style="stroke:#181818;stroke-width:0.5;" width="153" x="7" y="237.5"/><ellipse cx="60.75" cy="253.5" fill="#ADD1B2" rx="11" ry="11" style="stroke:#181818;stroke-width:1.0;"/><path d="M63.0938,249.1719 C62.1563,248.7344 61.5625,248.5938 60.6875,248.5938 C58.0625,248.5938 56.0625,250.6719 56.0625,253.3906 L56.0625,254.5156 C56.0625,257.0938 58.1719,258.9844 61.0625,258.9844 C62.2813,258.9844 63.4375,258.6875 64.1875,258.1406 C64.7656,257.7344 65.0938,257.2813 65.0938,256.8906 C65.0938,256.4375 64.7031,256.0469 64.2344,256.0469 C64.0156,256.0469 63.8125,256.125 63.625,256.3125 C63.1719,256.7969 63.1719,256.7969 62.9844,256.8906 C62.5625,257.1563 61.875,257.2813 61.1094,257.2813 C59.0625,257.2813 57.7656,256.1875 57.7656,254.4844 L57.7656,253.3906 C57.7656,251.6094 59.0156,250.2969 60.75,250.2969 C61.3281,250.2969 61.9375,250.4531 62.4063,250.7031 C62.8906,250.9844 63.0625,251.2031 63.1563,251.6094 C63.2188,252.0156 63.25,252.1406 63.3906,252.2656 C63.5313,252.4063 63.7656,252.5156 63.9844,252.5156 C64.25,252.5156 64.5156,252.375 64.6875,252.1563 C64.7969,252 64.8281,251.8125 64.8281,251.3906 L64.8281,249.9688 C64.8281,249.5313 64.8125,249.4063 64.7188,249.25 C64.5625,248.9844 64.2813,248.8438 63.9844,248.8438 C63.6875,248.8438 63.4844,248.9375 63.2656,249.25 L63.0938,249.1719 Z " fill="#000000"/><text fill="#000000" font-family="sans-serif" font-size="14" lengthAdjust="spacing" textLength="37" x="81.25" y="258.3467">Pizza</text><line style="stroke:#181818;stroke-width:0.5;" x1="8" x2="159" y1="269.5" y2="269.5"/><rect fill="none" height="6" style="stroke:#C82930;stroke-width:1.0;" width="6" x="15" y="280.1484"/><text fill="#000000" font-family="sans-serif" font-size="14" lengthAdjust="spacing" textLength="120" x="27" y="286.4951">ingredientes: str</text><line style="stroke:#181818;stroke-width:0.5;" x1="8" x2="159" y1="293.7969" y2="293.7969"/><ellipse cx="18" cy="307.4453" fill="#84BE84" rx="3" ry="3" style="stroke:#038048;stroke-width:1.0;"/><text fill="#000000" font-family="sans-serif" font-size="14" lengthAdjust="spacing" textLength="85" x="27" y="310.792">Pizza(pizza)</text><ellipse cx="18" cy="323.7422" fill="#84BE84" rx="3" ry="3" style="stroke:#038048;stroke-width:1.0;"/><text fill="#000000" font-family="sans-serif" font-size="14" lengthAdjust="spacing" textLength="127" x="27" y="327.0889">operation(): Pizza</text></g><!--class Bebida--><g id="elem_Bebida"><rect codeLine="16" fill="#F1F1F1" height="96.8906" id="Bebida" rx="2.5" ry="2.5" style="stroke:#181818;stroke-width:0.5;" width="177" x="195" y="237.5"/><ellipse cx="254.25" cy="253.5" fill="#ADD1B2" rx="11" ry="11" style="stroke:#181818;stroke-width:1.0;"/><path d="M256.5938,249.1719 C255.6563,248.7344 255.0625,248.5938 254.1875,248.5938 C251.5625,248.5938 249.5625,250.6719 249.5625,253.3906 L249.5625,254.5156 C249.5625,257.0938 251.6719,258.9844 254.5625,258.9844 C255.7813,258.9844 256.9375,258.6875 257.6875,258.1406 C258.2656,257.7344 258.5938,257.2813 258.5938,256.8906 C258.5938,256.4375 258.2031,256.0469 257.7344,256.0469 C257.5156,256.0469 257.3125,256.125 257.125,256.3125 C256.6719,256.7969 256.6719,256.7969 256.4844,256.8906 C256.0625,257.1563 255.375,257.2813 254.6094,257.2813 C252.5625,257.2813 251.2656,256.1875 251.2656,254.4844 L251.2656,253.3906 C251.2656,251.6094 252.5156,250.2969 254.25,250.2969 C254.8281,250.2969 255.4375,250.4531 255.9063,250.7031 C256.3906,250.9844 256.5625,251.2031 256.6563,251.6094 C256.7188,252.0156 256.75,252.1406 256.8906,252.2656 C257.0313,252.4063 257.2656,252.5156 257.4844,252.5156 C257.75,252.5156 258.0156,252.375 258.1875,252.1563 C258.2969,252 258.3281,251.8125 258.3281,251.3906 L258.3281,249.9688 C258.3281,249.5313 258.3125,249.4063 258.2188,249.25 C258.0625,248.9844 257.7813,248.8438 257.4844,248.8438 C257.1875,248.8438 256.9844,248.9375 256.7656,249.25 L256.5938,249.1719 Z " fill="#000000"/><text fill="#000000" font-family="sans-serif" font-size="14" lengthAdjust="spacing" textLength="50" x="274.75" y="258.3467">Bebida</text><line style="stroke:#181818;stroke-width:0.5;" x1="196" x2="371" y1="269.5" y2="269.5"/><rect fill="none" height="6" style="stroke:#C82930;stroke-width:1.0;" width="6" x="203" y="280.1484"/><text fill="#000000" font-family="sans-serif" font-size="14" lengthAdjust="spacing" textLength="120" x="215" y="286.4951">ingredientes: str</text><line style="stroke:#181818;stroke-width:0.5;" x1="196" x2="371" y1="293.7969" y2="293.7969"/><ellipse cx="206" cy="307.4453" fill="#84BE84" rx="3" ry="3" style="stroke:#038048;stroke-width:1.0;"/><text fill="#000000" font-family="sans-serif" font-size="14" lengthAdjust="spacing" textLength="151" x="215" y="310.792">Bebida(ingredientes)</text><ellipse cx="206" cy="323.7422" fill="#84BE84" rx="3" ry="3" style="stroke:#038048;stroke-width:1.0;"/><text fill="#000000" font-family="sans-serif" font-size="14" lengthAdjust="spacing" textLength="110" x="215" y="327.0889">operation(): str</text></g><!--class Postre--><g id="elem_Postre"><rect codeLine="22" fill="#F1F1F1" height="96.8906" id="Postre" rx="2.5" ry="2.5" style="stroke:#181818;stroke-width:0.5;" width="174" x="407.5" y="237.5"/><ellipse cx="466.75" cy="253.5" fill="#ADD1B2" rx="11" ry="11" style="stroke:#181818;stroke-width:1.0;"/><path d="M469.0938,249.1719 C468.1563,248.7344 467.5625,248.5938 466.6875,248.5938 C464.0625,248.5938 462.0625,250.6719 462.0625,253.3906 L462.0625,254.5156 C462.0625,257.0938 464.1719,258.9844 467.0625,258.9844 C468.2813,258.9844 469.4375,258.6875 470.1875,258.1406 C470.7656,257.7344 471.0938,257.2813 471.0938,256.8906 C471.0938,256.4375 470.7031,256.0469 470.2344,256.0469 C470.0156,256.0469 469.8125,256.125 469.625,256.3125 C469.1719,256.7969 469.1719,256.7969 468.9844,256.8906 C468.5625,257.1563 467.875,257.2813 467.1094,257.2813 C465.0625,257.2813 463.7656,256.1875 463.7656,254.4844 L463.7656,253.3906 C463.7656,251.6094 465.0156,250.2969 466.75,250.2969 C467.3281,250.2969 467.9375,250.4531 468.4063,250.7031 C468.8906,250.9844 469.0625,251.2031 469.1563,251.6094 C469.2188,252.0156 469.25,252.1406 469.3906,252.2656 C469.5313,252.4063 469.7656,252.5156 469.9844,252.5156 C470.25,252.5156 470.5156,252.375 470.6875,252.1563 C470.7969,252 470.8281,251.8125 470.8281,251.3906 L470.8281,249.9688 C470.8281,249.5313 470.8125,249.4063 470.7188,249.25 C470.5625,248.9844 470.2813,248.8438 469.9844,248.8438 C469.6875,248.8438 469.4844,248.9375 469.2656,249.25 L469.0938,249.1719 Z " fill="#000000"/><text fill="#000000" font-family="sans-serif" font-size="14" lengthAdjust="spacing" textLength="47" x="487.25" y="258.3467">Postre</text><line style="stroke:#181818;stroke-width:0.5;" x1="408.5" x2="580.5" y1="269.5" y2="269.5"/><rect fill="none" height="6" style="stroke:#C82930;stroke-width:1.0;" width="6" x="415.5" y="280.1484"/><text fill="#000000" font-family="sans-serif" font-size="14" lengthAdjust="spacing" textLength="120" x="427.5" y="286.4951">ingredientes: str</text><line style="stroke:#181818;stroke-width:0.5;" x1="408.5" x2="580.5" y1="293.7969" y2="293.7969"/><ellipse cx="418.5" cy="307.4453" fill="#84BE84" rx="3" ry="3" style="stroke:#038048;stroke-width:1.0;"/><text fill="#000000" font-family="sans-serif" font-size="14" lengthAdjust="spacing" textLength="148" x="427.5" y="310.792">Postre(ingredientes)</text><ellipse cx="418.5" cy="323.7422" fill="#84BE84" rx="3" ry="3" style="stroke:#038048;stroke-width:1.0;"/><text fill="#000000" font-family="sans-serif" font-size="14" lengthAdjust="spacing" textLength="110" x="427.5" y="327.0889">operation(): str</text></g><!--class Entrada--><g id="elem_Entrada"><rect codeLine="28" fill="#F1F1F1" height="96.8906" id="Entrada" rx="2.5" ry="2.5" style="stroke:#181818;stroke-width:0.5;" width="183" x="617" y="237.5"/><ellipse cx="676.25" cy="253.5" fill="#ADD1B2" rx="11" ry="11" style="stroke:#181818;stroke-width:1.0;"/><path d="M678.5938,249.1719 C677.6563,248.7344 677.0625,248.5938 676.1875,248.5938 C673.5625,248.5938 671.5625,250.6719 671.5625,253.3906 L671.5625,254.5156 C671.5625,257.0938 673.6719,258.9844 676.5625,258.9844 C677.7813,258.9844 678.9375,258.6875 679.6875,258.1406 C680.2656,257.7344 680.5938,257.2813 680.5938,256.8906 C680.5938,256.4375 680.2031,256.0469 679.7344,256.0469 C679.5156,256.0469 679.3125,256.125 679.125,256.3125 C678.6719,256.7969 678.6719,256.7969 678.4844,256.8906 C678.0625,257.1563 677.375,257.2813 676.6094,257.2813 C674.5625,257.2813 673.2656,256.1875 673.2656,254.4844 L673.2656,253.3906 C673.2656,251.6094 674.5156,250.2969 676.25,250.2969 C676.8281,250.2969 677.4375,250.4531 677.9063,250.7031 C678.3906,250.9844 678.5625,251.2031 678.6563,251.6094 C678.7188,252.0156 678.75,252.1406 678.8906,252.2656 C679.0313,252.4063 679.2656,252.5156 679.4844,252.5156 C679.75,252.5156 680.0156,252.375 680.1875,252.1563 C680.2969,252 680.3281,251.8125 680.3281,251.3906 L680.3281,249.9688 C680.3281,249.5313 680.3125,249.4063 680.2188,249.25 C680.0625,248.9844 679.7813,248.8438 679.4844,248.8438 C679.1875,248.8438 678.9844,248.9375 678.7656,249.25 L678.5938,249.1719 Z " fill="#000000"/><text fill="#000000" font-family="sans-serif" font-size="14" lengthAdjust="spacing" textLength="56" x="696.75" y="258.3467">Entrada</text><line style="stroke:#181818;stroke-width:0.5;" x1="618" x2="799" y1="269.5" y2="269.5"/><rect fill="none" height="6" style="stroke:#C82930;stroke-width:1.0;" width="6" x="625" y="280.1484"/><text fill="#000000" font-family="sans-serif" font-size="14" lengthAdjust="spacing" textLength="120" x="637" y="286.4951">ingredientes: str</text><line style="stroke:#181818;stroke-width:0.5;" x1="618" x2="799" y1="293.7969" y2="293.7969"/><ellipse cx="628" cy="307.4453" fill="#84BE84" rx="3" ry="3" style="stroke:#038048;stroke-width:1.0;"/><text fill="#000000" font-family="sans-serif" font-size="14" lengthAdjust="spacing" textLength="157" x="637" y="310.792">Entrada(ingredientes)</text><ellipse cx="628" cy="323.7422" fill="#84BE84" rx="3" ry="3" style="stroke:#038048;stroke-width:1.0;"/><text fill="#000000" font-family="sans-serif" font-size="14" lengthAdjust="spacing" textLength="110" x="637" y="327.0889">operation(): str</text></g><!--class Menu--><g id="elem_Menu"><rect codeLine="34" fill="#F1F1F1" height="145.7813" id="Menu" rx="2.5" ry="2.5" style="stroke:#181818;stroke-width:0.5;" width="309" x="835" y="213"/><ellipse cx="966.25" cy="229" fill="#ADD1B2" rx="11" ry="11" style="stroke:#181818;stroke-width:1.0;"/><path d="M968.5938,224.6719 C967.6563,224.2344 967.0625,224.0938 966.1875,224.0938 C963.5625,224.0938 961.5625,226.1719 961.5625,228.8906 L961.5625,230.0156 C961.5625,232.5938 963.6719,234.4844 966.5625,234.4844 C967.7813,234.4844 968.9375,234.1875 969.6875,233.6406 C970.2656,233.2344 970.5938,232.7813 970.5938,232.3906 C970.5938,231.9375 970.2031,231.5469 969.7344,231.5469 C969.5156,231.5469 969.3125,231.625 969.125,231.8125 C968.6719,232.2969 968.6719,232.2969 968.4844,232.3906 C968.0625,232.6563 967.375,232.7813 966.6094,232.7813 C964.5625,232.7813 963.2656,231.6875 963.2656,229.9844 L963.2656,228.8906 C963.2656,227.1094 964.5156,225.7969 966.25,225.7969 C966.8281,225.7969 967.4375,225.9531 967.9063,226.2031 C968.3906,226.4844 968.5625,226.7031 968.6563,227.1094 C968.7188,227.5156 968.75,227.6406 968.8906,227.7656 C969.0313,227.9063 969.2656,228.0156 969.4844,228.0156 C969.75,228.0156 970.0156,227.875 970.1875,227.6563 C970.2969,227.5 970.3281,227.3125 970.3281,226.8906 L970.3281,225.4688 C970.3281,225.0313 970.3125,224.9063 970.2188,224.75 C970.0625,224.4844 969.7813,224.3438 969.4844,224.3438 C969.1875,224.3438 968.9844,224.4375 968.7656,224.75 L968.5938,224.6719 Z " fill="#000000"/><text fill="#000000" font-family="sans-serif" font-size="14" lengthAdjust="spacing" textLength="38" x="986.75" y="233.8467">Menu</text><line style="stroke:#181818;stroke-width:0.5;" x1="836" x2="1143" y1="245" y2="245"/><rect fill="none" height="6" style="stroke:#C82930;stroke-width:1.0;" width="6" x="843" y="255.6484"/><text fill="#000000" font-family="sans-serif" font-size="14" lengthAdjust="spacing" textLength="208" x="855" y="261.9951">_children: List&lt;Component&gt;</text><line style="stroke:#181818;stroke-width:0.5;" x1="836" x2="1143" y1="269.2969" y2="269.2969"/><ellipse cx="846" cy="282.9453" fill="#84BE84" rx="3" ry="3" style="stroke:#038048;stroke-width:1.0;"/><text fill="#000000" font-family="sans-serif" font-size="14" lengthAdjust="spacing" textLength="48" x="855" y="286.292">Menu()</text><ellipse cx="846" cy="299.2422" fill="#84BE84" rx="3" ry="3" style="stroke:#038048;stroke-width:1.0;"/><text fill="#000000" font-family="sans-serif" font-size="14" lengthAdjust="spacing" textLength="254" x="855" y="302.5889">add(component: Component): void</text><ellipse cx="846" cy="315.5391" fill="#84BE84" rx="3" ry="3" style="stroke:#038048;stroke-width:1.0;"/><text fill="#000000" font-family="sans-serif" font-size="14" lengthAdjust="spacing" textLength="283" x="855" y="318.8857">remove(component: Component): void</text><ellipse cx="846" cy="331.8359" fill="#84BE84" rx="3" ry="3" style="stroke:#038048;stroke-width:1.0;"/><text fill="#000000" font-family="sans-serif" font-size="14" lengthAdjust="spacing" textLength="146" x="855" y="335.1826">is_composite(): bool</text><ellipse cx="846" cy="348.1328" fill="#84BE84" rx="3" ry="3" style="stroke:#038048;stroke-width:1.0;"/><text fill="#000000" font-family="sans-serif" font-size="14" lengthAdjust="spacing" textLength="110" x="855" y="351.4795">operation(): str</text></g><!--reverse link Component to Pizza--><g id="link_Component_Pizza"><path codeLine="43" d="M326.1134,135.0618 C267.2674,157.4708 217.404,180.108 160.5,213 C148.22,220.098 135.731,228.601 124.37,237.235 " fill="none" id="Component-backto-Pizza" style="stroke:#181818;stroke-width:1.0;"/><polygon fill="none" points="342.935,128.656,323.9781,129.4546,328.2487,140.669,342.935,128.656" style="stroke:#181818;stroke-width:1.0;"/></g><!--link Pizza to Component--><g id="link_Pizza_Component"><path codeLine="49" d="M158.423,237.422 C170.55,228.724 183.131,220.15 195.5,213 C241.823,186.224 289.092,164.3125 337.365,144.1395 " fill="none" id="Pizza-to-Component" style="stroke:#181818;stroke-width:1.0;"/><polygon fill="#181818" points="342.901,141.826,333.0546,141.6055,338.2876,143.7539,336.1393,148.9869,342.901,141.826" style="stroke:#181818;stroke-width:1.0;"/><text fill="#000000" font-family="sans-serif" font-size="13" lengthAdjust="spacing" textLength="7" x="327.9037" y="141.7031">*</text></g><!--reverse link Component to Bebida--><g id="link_Component_Bebida"><path codeLine="44" d="M394.4165,165.5094 C364.5325,193.4764 345.788,212.419 321.695,237.463 " fill="none" id="Component-backto-Bebida" style="stroke:#181818;stroke-width:1.0;"/><polygon fill="none" points="407.559,153.21,390.3167,161.1286,398.5163,169.8902,407.559,153.21" style="stroke:#181818;stroke-width:1.0;"/></g><!--link Bebida to Component--><g id="link_Bebida_Component"><path codeLine="50" d="M344.287,237.463 C372.107,212.419 400.6355,185.4237 428.5485,157.4567 " fill="none" id="Bebida-to-Component" style="stroke:#181818;stroke-width:1.0;"/><polygon fill="#181818" points="432.787,153.21,423.598,156.7544,429.2549,156.7489,429.2604,162.4058,432.787,153.21" style="stroke:#181818;stroke-width:1.0;"/><text fill="#000000" font-family="sans-serif" font-size="13" lengthAdjust="spacing" textLength="7" x="419.7752" y="172.7336">*</text></g><!--reverse link Component to Postre--><g id="link_Component_Postre"><path codeLine="45" d="M481.6304,171.1995 C480.6734,199.1665 481.716,212.419 483.527,237.463 " fill="none" id="Component-backto-Postre" style="stroke:#181818;stroke-width:1.0;"/><polygon fill="none" points="482.246,153.21,475.6339,170.9943,487.6269,171.4047,482.246,153.21" style="stroke:#181818;stroke-width:1.0;"/></g><!--link Postre to Component--><g id="link_Postre_Component"><path codeLine="51" d="M506.119,237.463 C508.036,212.419 508.7052,187.1731 507.6922,159.2061 " fill="none" id="Postre-to-Component" style="stroke:#181818;stroke-width:1.0;"/><polygon fill="#181818" points="507.475,153.21,503.8034,162.3489,507.656,158.2067,511.7982,162.0593,507.475,153.21" style="stroke:#181818;stroke-width:1.0;"/><text fill="#000000" font-family="sans-serif" font-size="13" lengthAdjust="spacing" textLength="7" x="501.3485" y="172.7336">*</text></g><!--reverse link Component to Entrada--><g id="link_Component_Entrada"><path codeLine="46" d="M570.8171,165.8441 C599.1981,193.8111 619.577,212.419 647.659,237.463 " fill="none" id="Component-backto-Entrada" style="stroke:#181818;stroke-width:1.0;"/><polygon fill="none" points="557.996,153.21,566.6057,170.1178,575.0284,161.5704,557.996,153.21" style="stroke:#181818;stroke-width:1.0;"/></g><!--link Entrada to Component--><g id="link_Entrada_Component"><path codeLine="52" d="M670.251,237.463 C645.896,212.419 617.9874,185.2428 587.6364,157.2758 " fill="none" id="Entrada-to-Component" style="stroke:#181818;stroke-width:1.0;"/><polygon fill="#181818" points="583.224,153.21,587.132,162.2503,586.901,156.5982,592.5531,156.3671,583.224,153.21" style="stroke:#181818;stroke-width:1.0;"/><text fill="#000000" font-family="sans-serif" font-size="13" lengthAdjust="spacing" textLength="7" x="584.0806" y="172.7336">*</text></g><!--reverse link Component to Menu--><g id="link_Component_Menu"><path codeLine="47" d="M663.0306,156.3046 C712.1736,176.6786 750.259,192.219 800.5,213 C811.568,217.578 823.03,222.337 834.591,227.128 " fill="none" id="Component-backto-Menu" style="stroke:#181818;stroke-width:1.0;"/><polygon fill="none" points="646.403,149.411,660.7328,161.8471,665.3285,150.762,646.403,149.411" style="stroke:#181818;stroke-width:1.0;"/></g><!--link Menu to Component--><g id="link_Menu_Component"><path codeLine="53" d="M835.139,212.851 C773.657,187.421 711.0877,161.7496 651.9037,138.1956 " fill="none" id="Menu-to-Component" style="stroke:#181818;stroke-width:1.0;"/><polygon fill="#181818" points="646.329,135.977,653.212,143.0214,650.9746,137.8259,656.1702,135.5885,646.329,135.977" style="stroke:#181818;stroke-width:1.0;"/><text fill="#000000" font-family="sans-serif" font-size="13" lengthAdjust="spacing" textLength="7" x="653.8527" y="135.4005">*</text></g><!--SRC=[fLDBRiCW5Dnp2fGLgSK5h2YBLjsrKcyGOVEKFia12sWMINFtOC31DQdSg5vOOcOOlyzODDOPqJhQTi9Q-g8FlLQW73qJwX- -wuNnnpep0Q_kmsUHx2wqqZqOuL0hjgwfHmk1a9Aru_M9avSVDSf2R-2WZx1ufKAx2ngB3ePlDrftv498xF03JoSnTeTgRq2YTm2RYwo2XlN3UnsH7yq4EZi-GuDooJAAs9IzPpteSwdQ7s6frY1wpFXL-PakbfnKZrc_W_gwPQVzn4xwdDJq3QtRtDQrZIw3bYN7luJXVmdujV2S-SqtvscxCp2khv26sS_HDBSvF7HBI8mVvrkwUbfD_fuKef988IY9SOab4tPGm5S0]--></g></svg>