<?xml version="1.0" encoding="us-ascii" standalone="no"?><svg xmlns="http://www.w3.org/2000/svg" xmlns:xlink="http://www.w3.org/1999/xlink" contentStyleType="text/css" height="701px" preserveAspectRatio="none" style="width:467px;height:701px;background:#FFFFFF;" version="1.1" viewBox="0 0 467 701" width="467px" zoomAndPan="magnify"><defs/><g><!--class Builder--><g id="elem_Builder"><rect codeLine="1" fill="#F1F1F1" height="227.2656" id="Builder" rx="2.5" ry="2.5" style="stroke:#181818;stroke-width:0.5;" width="243" x="129" y="164"/><ellipse cx="221.25" cy="180" fill="#ADD1B2" rx="11" ry="11" style="stroke:#181818;stroke-width:1.0;"/><path d="M223.5938,175.6719 C222.6563,175.2344 222.0625,175.0938 221.1875,175.0938 C218.5625,175.0938 216.5625,177.1719 216.5625,179.8906 L216.5625,181.0156 C216.5625,183.5938 218.6719,185.4844 221.5625,185.4844 C222.7813,185.4844 223.9375,185.1875 224.6875,184.6406 C225.2656,184.2344 225.5938,183.7813 225.5938,183.3906 C225.5938,182.9375 225.2031,182.5469 224.7344,182.5469 C224.5156,182.5469 224.3125,182.625 224.125,182.8125 C223.6719,183.2969 223.6719,183.2969 223.4844,183.3906 C223.0625,183.6563 222.375,183.7813 221.6094,183.7813 C219.5625,183.7813 218.2656,182.6875 218.2656,180.9844 L218.2656,179.8906 C218.2656,178.1094 219.5156,176.7969 221.25,176.7969 C221.8281,176.7969 222.4375,176.9531 222.9063,177.2031 C223.3906,177.4844 223.5625,177.7031 223.6563,178.1094 C223.7188,178.5156 223.75,178.6406 223.8906,178.7656 C224.0313,178.9063 224.2656,179.0156 224.4844,179.0156 C224.75,179.0156 225.0156,178.875 225.1875,178.6563 C225.2969,178.5 225.3281,178.3125 225.3281,177.8906 L225.3281,176.4688 C225.3281,176.0313 225.3125,175.9063 225.2188,175.75 C225.0625,175.4844 224.7813,175.3438 224.4844,175.3438 C224.1875,175.3438 223.9844,175.4375 223.7656,175.75 L223.5938,175.6719 Z " fill="#000000"/><text fill="#000000" font-family="sans-serif" font-size="14" lengthAdjust="spacing" textLength="50" x="241.75" y="184.8467">Builder</text><line style="stroke:#181818;stroke-width:0.5;" x1="130" x2="371" y1="196" y2="196"/><ellipse cx="140" cy="209.6484" fill="none" rx="3" ry="3" style="stroke:#038048;stroke-width:1.0;"/><text fill="#000000" font-family="sans-serif" font-size="14" lengthAdjust="spacing" textLength="84" x="149" y="212.9951">pizza: None</text><line style="stroke:#181818;stroke-width:0.5;" x1="130" x2="371" y1="220.2969" y2="220.2969"/><ellipse cx="140" cy="233.9453" fill="#84BE84" rx="3" ry="3" style="stroke:#038048;stroke-width:1.0;"/><text fill="#000000" font-family="sans-serif" font-size="14" lengthAdjust="spacing" textLength="159" x="149" y="237.292">produce_masa(): None</text><ellipse cx="140" cy="250.2422" fill="#84BE84" rx="3" ry="3" style="stroke:#038048;stroke-width:1.0;"/><text fill="#000000" font-family="sans-serif" font-size="14" lengthAdjust="spacing" textLength="156" x="149" y="253.5889">produce_salsa(): None</text><ellipse cx="140" cy="266.5391" fill="#84BE84" rx="3" ry="3" style="stroke:#038048;stroke-width:1.0;"/><text fill="#000000" font-family="sans-serif" font-size="14" lengthAdjust="spacing" textLength="164" x="149" y="269.8857">produce_queso(): None</text><ellipse cx="140" cy="282.8359" fill="#84BE84" rx="3" ry="3" style="stroke:#038048;stroke-width:1.0;"/><text fill="#000000" font-family="sans-serif" font-size="14" lengthAdjust="spacing" textLength="215" x="149" y="286.1826">produce_ingrediente1(): None</text><ellipse cx="140" cy="299.1328" fill="#84BE84" rx="3" ry="3" style="stroke:#038048;stroke-width:1.0;"/><text fill="#000000" font-family="sans-serif" font-size="14" lengthAdjust="spacing" textLength="214" x="149" y="302.4795">produce_ingrediente2(): None</text><ellipse cx="140" cy="315.4297" fill="#84BE84" rx="3" ry="3" style="stroke:#038048;stroke-width:1.0;"/><text fill="#000000" font-family="sans-serif" font-size="14" lengthAdjust="spacing" textLength="215" x="149" y="318.7764">produce_ingrediente3(): None</text><ellipse cx="140" cy="331.7266" fill="#84BE84" rx="3" ry="3" style="stroke:#038048;stroke-width:1.0;"/><text fill="#000000" font-family="sans-serif" font-size="14" lengthAdjust="spacing" textLength="177" x="149" y="335.0732">produce_coccion(): None</text><ellipse cx="140" cy="348.0234" fill="#84BE84" rx="3" ry="3" style="stroke:#038048;stroke-width:1.0;"/><text fill="#000000" font-family="sans-serif" font-size="14" lengthAdjust="spacing" textLength="217" x="149" y="351.3701">produce_presentacion(): None</text><ellipse cx="140" cy="364.3203" fill="#84BE84" rx="3" ry="3" style="stroke:#038048;stroke-width:1.0;"/><text fill="#000000" font-family="sans-serif" font-size="14" lengthAdjust="spacing" textLength="184" x="149" y="367.667">produce_maridaje(): None</text><ellipse cx="140" cy="380.6172" fill="#84BE84" rx="3" ry="3" style="stroke:#038048;stroke-width:1.0;"/><text fill="#000000" font-family="sans-serif" font-size="14" lengthAdjust="spacing" textLength="167" x="149" y="383.9639">produce_extras(): None</text></g><!--class BuilderPizza--><g id="elem_BuilderPizza"><rect codeLine="15" fill="#F1F1F1" height="243.5625" id="BuilderPizza" rx="2.5" ry="2.5" style="stroke:#181818;stroke-width:0.5;" width="243" x="7" y="451"/><ellipse cx="80.75" cy="467" fill="#ADD1B2" rx="11" ry="11" style="stroke:#181818;stroke-width:1.0;"/><path d="M83.0938,462.6719 C82.1563,462.2344 81.5625,462.0938 80.6875,462.0938 C78.0625,462.0938 76.0625,464.1719 76.0625,466.8906 L76.0625,468.0156 C76.0625,470.5938 78.1719,472.4844 81.0625,472.4844 C82.2813,472.4844 83.4375,472.1875 84.1875,471.6406 C84.7656,471.2344 85.0938,470.7813 85.0938,470.3906 C85.0938,469.9375 84.7031,469.5469 84.2344,469.5469 C84.0156,469.5469 83.8125,469.625 83.625,469.8125 C83.1719,470.2969 83.1719,470.2969 82.9844,470.3906 C82.5625,470.6563 81.875,470.7813 81.1094,470.7813 C79.0625,470.7813 77.7656,469.6875 77.7656,467.9844 L77.7656,466.8906 C77.7656,465.1094 79.0156,463.7969 80.75,463.7969 C81.3281,463.7969 81.9375,463.9531 82.4063,464.2031 C82.8906,464.4844 83.0625,464.7031 83.1563,465.1094 C83.2188,465.5156 83.25,465.6406 83.3906,465.7656 C83.5313,465.9063 83.7656,466.0156 83.9844,466.0156 C84.25,466.0156 84.5156,465.875 84.6875,465.6563 C84.7969,465.5 84.8281,465.3125 84.8281,464.8906 L84.8281,463.4688 C84.8281,463.0313 84.8125,462.9063 84.7188,462.75 C84.5625,462.4844 84.2813,462.3438 83.9844,462.3438 C83.6875,462.3438 83.4844,462.4375 83.2656,462.75 L83.0938,462.6719 Z " fill="#000000"/><text fill="#000000" font-family="sans-serif" font-size="14" lengthAdjust="spacing" textLength="87" x="101.25" y="471.8467">BuilderPizza</text><line style="stroke:#181818;stroke-width:0.5;" x1="8" x2="249" y1="483" y2="483"/><ellipse cx="18" cy="496.6484" fill="none" rx="3" ry="3" style="stroke:#038048;stroke-width:1.0;"/><text fill="#000000" font-family="sans-serif" font-size="14" lengthAdjust="spacing" textLength="141" x="27" y="499.9951">pizza: AgregarPizza</text><line style="stroke:#181818;stroke-width:0.5;" x1="8" x2="249" y1="507.2969" y2="507.2969"/><ellipse cx="18" cy="520.9453" fill="#84BE84" rx="3" ry="3" style="stroke:#038048;stroke-width:1.0;"/><text fill="#000000" font-family="sans-serif" font-size="14" lengthAdjust="spacing" textLength="94" x="27" y="524.292">reset(): None</text><ellipse cx="18" cy="537.2422" fill="#84BE84" rx="3" ry="3" style="stroke:#038048;stroke-width:1.0;"/><text fill="#000000" font-family="sans-serif" font-size="14" lengthAdjust="spacing" textLength="159" x="27" y="540.5889">produce_masa(): None</text><ellipse cx="18" cy="553.5391" fill="#84BE84" rx="3" ry="3" style="stroke:#038048;stroke-width:1.0;"/><text fill="#000000" font-family="sans-serif" font-size="14" lengthAdjust="spacing" textLength="156" x="27" y="556.8857">produce_salsa(): None</text><ellipse cx="18" cy="569.8359" fill="#84BE84" rx="3" ry="3" style="stroke:#038048;stroke-width:1.0;"/><text fill="#000000" font-family="sans-serif" font-size="14" lengthAdjust="spacing" textLength="164" x="27" y="573.1826">produce_queso(): None</text><ellipse cx="18" cy="586.1328" fill="#84BE84" rx="3" ry="3" style="stroke:#038048;stroke-width:1.0;"/><text fill="#000000" font-family="sans-serif" font-size="14" lengthAdjust="spacing" textLength="215" x="27" y="589.4795">produce_ingrediente1(): None</text><ellipse cx="18" cy="602.4297" fill="#84BE84" rx="3" ry="3" style="stroke:#038048;stroke-width:1.0;"/><text fill="#000000" font-family="sans-serif" font-size="14" lengthAdjust="spacing" textLength="214" x="27" y="605.7764">produce_ingrediente2(): None</text><ellipse cx="18" cy="618.7266" fill="#84BE84" rx="3" ry="3" style="stroke:#038048;stroke-width:1.0;"/><text fill="#000000" font-family="sans-serif" font-size="14" lengthAdjust="spacing" textLength="215" x="27" y="622.0732">produce_ingrediente3(): None</text><ellipse cx="18" cy="635.0234" fill="#84BE84" rx="3" ry="3" style="stroke:#038048;stroke-width:1.0;"/><text fill="#000000" font-family="sans-serif" font-size="14" lengthAdjust="spacing" textLength="177" x="27" y="638.3701">produce_coccion(): None</text><ellipse cx="18" cy="651.3203" fill="#84BE84" rx="3" ry="3" style="stroke:#038048;stroke-width:1.0;"/><text fill="#000000" font-family="sans-serif" font-size="14" lengthAdjust="spacing" textLength="217" x="27" y="654.667">produce_presentacion(): None</text><ellipse cx="18" cy="667.6172" fill="#84BE84" rx="3" ry="3" style="stroke:#038048;stroke-width:1.0;"/><text fill="#000000" font-family="sans-serif" font-size="14" lengthAdjust="spacing" textLength="184" x="27" y="670.9639">produce_maridaje(): None</text><ellipse cx="18" cy="683.9141" fill="#84BE84" rx="3" ry="3" style="stroke:#038048;stroke-width:1.0;"/><text fill="#000000" font-family="sans-serif" font-size="14" lengthAdjust="spacing" textLength="167" x="27" y="687.2607">produce_extras(): None</text></g><!--class AgregarPizza--><g id="elem_AgregarPizza"><rect codeLine="30" fill="#F1F1F1" height="96.8906" id="AgregarPizza" rx="2.5" ry="2.5" style="stroke:#181818;stroke-width:0.5;" width="175" x="285" y="524.5"/><ellipse cx="322.05" cy="540.5" fill="#ADD1B2" rx="11" ry="11" style="stroke:#181818;stroke-width:1.0;"/><path d="M324.3938,536.1719 C323.4563,535.7344 322.8625,535.5938 321.9875,535.5938 C319.3625,535.5938 317.3625,537.6719 317.3625,540.3906 L317.3625,541.5156 C317.3625,544.0938 319.4719,545.9844 322.3625,545.9844 C323.5813,545.9844 324.7375,545.6875 325.4875,545.1406 C326.0656,544.7344 326.3938,544.2813 326.3938,543.8906 C326.3938,543.4375 326.0031,543.0469 325.5344,543.0469 C325.3156,543.0469 325.1125,543.125 324.925,543.3125 C324.4719,543.7969 324.4719,543.7969 324.2844,543.8906 C323.8625,544.1563 323.175,544.2813 322.4094,544.2813 C320.3625,544.2813 319.0656,543.1875 319.0656,541.4844 L319.0656,540.3906 C319.0656,538.6094 320.3156,537.2969 322.05,537.2969 C322.6281,537.2969 323.2375,537.4531 323.7063,537.7031 C324.1906,537.9844 324.3625,538.2031 324.4563,538.6094 C324.5188,539.0156 324.55,539.1406 324.6906,539.2656 C324.8313,539.4063 325.0656,539.5156 325.2844,539.5156 C325.55,539.5156 325.8156,539.375 325.9875,539.1563 C326.0969,539 326.1281,538.8125 326.1281,538.3906 L326.1281,536.9688 C326.1281,536.5313 326.1125,536.4063 326.0188,536.25 C325.8625,535.9844 325.5813,535.8438 325.2844,535.8438 C324.9875,535.8438 324.7844,535.9375 324.5656,536.25 L324.3938,536.1719 Z " fill="#000000"/><text fill="#000000" font-family="sans-serif" font-size="14" lengthAdjust="spacing" textLength="94" x="340.95" y="545.3467">AgregarPizza</text><line style="stroke:#181818;stroke-width:0.5;" x1="286" x2="459" y1="556.5" y2="556.5"/><ellipse cx="296" cy="570.1484" fill="none" rx="3" ry="3" style="stroke:#038048;stroke-width:1.0;"/><text fill="#000000" font-family="sans-serif" font-size="14" lengthAdjust="spacing" textLength="69" x="305" y="573.4951">parts: list</text><line style="stroke:#181818;stroke-width:0.5;" x1="286" x2="459" y1="580.7969" y2="580.7969"/><ellipse cx="296" cy="594.4453" fill="#84BE84" rx="3" ry="3" style="stroke:#038048;stroke-width:1.0;"/><text fill="#000000" font-family="sans-serif" font-size="14" lengthAdjust="spacing" textLength="149" x="305" y="597.792">add(part: Any): None</text><ellipse cx="296" cy="610.7422" fill="#84BE84" rx="3" ry="3" style="stroke:#038048;stroke-width:1.0;"/><text fill="#000000" font-family="sans-serif" font-size="14" lengthAdjust="spacing" textLength="123" x="305" y="614.0889">list_parts(): None</text></g><!--class Director--><g id="elem_Director"><rect codeLine="36" fill="#F1F1F1" height="96.8906" id="Director" rx="2.5" ry="2.5" style="stroke:#181818;stroke-width:0.5;" width="162" x="169.5" y="7"/><ellipse cx="216.25" cy="23" fill="#ADD1B2" rx="11" ry="11" style="stroke:#181818;stroke-width:1.0;"/><path d="M218.5938,18.6719 C217.6563,18.2344 217.0625,18.0938 216.1875,18.0938 C213.5625,18.0938 211.5625,20.1719 211.5625,22.8906 L211.5625,24.0156 C211.5625,26.5938 213.6719,28.4844 216.5625,28.4844 C217.7813,28.4844 218.9375,28.1875 219.6875,27.6406 C220.2656,27.2344 220.5938,26.7813 220.5938,26.3906 C220.5938,25.9375 220.2031,25.5469 219.7344,25.5469 C219.5156,25.5469 219.3125,25.625 219.125,25.8125 C218.6719,26.2969 218.6719,26.2969 218.4844,26.3906 C218.0625,26.6563 217.375,26.7813 216.6094,26.7813 C214.5625,26.7813 213.2656,25.6875 213.2656,23.9844 L213.2656,22.8906 C213.2656,21.1094 214.5156,19.7969 216.25,19.7969 C216.8281,19.7969 217.4375,19.9531 217.9063,20.2031 C218.3906,20.4844 218.5625,20.7031 218.6563,21.1094 C218.7188,21.5156 218.75,21.6406 218.8906,21.7656 C219.0313,21.9063 219.2656,22.0156 219.4844,22.0156 C219.75,22.0156 220.0156,21.875 220.1875,21.6563 C220.2969,21.5 220.3281,21.3125 220.3281,20.8906 L220.3281,19.4688 C220.3281,19.0313 220.3125,18.9063 220.2188,18.75 C220.0625,18.4844 219.7813,18.3438 219.4844,18.3438 C219.1875,18.3438 218.9844,18.4375 218.7656,18.75 L218.5938,18.6719 Z " fill="#000000"/><text fill="#000000" font-family="sans-serif" font-size="14" lengthAdjust="spacing" textLength="60" x="236.75" y="27.8467">Director</text><line style="stroke:#181818;stroke-width:0.5;" x1="170.5" x2="330.5" y1="39" y2="39"/><rect fill="none" height="6" style="stroke:#C82930;stroke-width:1.0;" width="6" x="177.5" y="49.6484"/><text fill="#000000" font-family="sans-serif" font-size="14" lengthAdjust="spacing" textLength="116" x="189.5" y="55.9951">_builder: Builder</text><ellipse cx="180.5" cy="68.9453" fill="none" rx="3" ry="3" style="stroke:#038048;stroke-width:1.0;"/><text fill="#000000" font-family="sans-serif" font-size="14" lengthAdjust="spacing" textLength="109" x="189.5" y="72.292">builder: Builder</text><line style="stroke:#181818;stroke-width:0.5;" x1="170.5" x2="330.5" y1="79.5938" y2="79.5938"/><ellipse cx="180.5" cy="93.2422" fill="#84BE84" rx="3" ry="3" style="stroke:#038048;stroke-width:1.0;"/><text fill="#000000" font-family="sans-serif" font-size="14" lengthAdjust="spacing" textLength="136" x="189.5" y="96.5889">build_pizza(): None</text></g><!--reverse link Builder to BuilderPizza--><g id="link_Builder_BuilderPizza"><path codeLine="42" d="M196.772,407.7562 C188.641,427.3172 187.063,431.113 178.843,450.888 " fill="none" id="Builder-backto-BuilderPizza" style="stroke:#181818;stroke-width:1.0;"/><polygon fill="none" points="203.681,391.135,191.2316,405.4532,202.3124,410.0592,203.681,391.135" style="stroke:#181818;stroke-width:1.0;"/></g><!--reverse link Builder to AgregarPizza--><g id="link_Builder_AgregarPizza"><path codeLine="43" d="M301.9252,402.2158 C321.1442,448.4498 337.744,488.386 352.721,524.416 " fill="none" id="Builder-backto-AgregarPizza" style="stroke:#181818;stroke-width:1.0;"/><polygon fill="#181818" points="297.319,391.135,295.9285,398.2108,301.9252,402.2158,303.3157,395.14,297.319,391.135" style="stroke:#181818;stroke-width:1.0;"/></g><!--reverse link Director to Builder--><g id="link_Director_Builder"><path codeLine="44" d="M250.5,116.237 C250.5,133.929 250.5,142.826 250.5,163.852 " fill="none" id="Director-backto-Builder" style="stroke:#181818;stroke-width:1.0;"/><polygon fill="#181818" points="250.5,104.237,246.5,110.237,250.5,116.237,254.5,110.237,250.5,104.237" style="stroke:#181818;stroke-width:1.0;"/></g><!--SRC=[xPEn3i8W48RtFWMZrdHGjyP5usny0tB2nM0gA4SJhVhkjiNMDj8OTqVk__aXtzs938ZOAbUPHCjk4MCJTb950IdR68t-R8tC1V8Z48p60O4W6r3EEP89AahlBKg5sk7qcs7spJ0F6eGHGXaTr4uMgRm9WuOZM2NXW44HByu2jT8ZYaINuxO2-89PlUFw8Hxlilpz7hptZ_adp5rqpSo2TPIoJ96hpo3bgAgLdFMrcrqvUEt-p5qhYy8PlmS9uplVphJfQnqmNEHrPxknpLujxadI6uvMYKkXDmdj7-BtbIS0]--></g></svg>